<?xml version="1.0" standalone="no"?>
<svg viewBox="0 0 200 200" xmlns="http://www.w3.org/2000/svg">
  <path fill="#CCD3CA" d="M23.5,-39.1C29.1,-37.5,31.3,-28.4,32,-20.7C32.6,-12.9,31.6,-6.5,34.1,1.4C36.5,9.3,42.4,18.6,41.8,26.3C41.1,34,33.9,40.2,25.9,43.6C17.8,47,8.9,47.7,-2.7,52.3C-14.2,56.9,-28.4,65.4,-40.8,64.5C-53.2,63.6,-63.8,53.3,-72.1,41C-80.3,28.6,-86.1,14.3,-83.4,1.6C-80.6,-11.1,-69.2,-22.2,-59.6,-32.2C-50,-42.2,-42.3,-51,-32.6,-50.2C-23,-49.5,-11.5,-39.2,-1.3,-37C9,-34.8,17.9,-40.7,23.5,-39.1Z" transform="translate(100 100)" />
</svg>
