<?xml version="1.0" standalone="no"?>
<svg viewBox="0 0 200 200" xmlns="http://www.w3.org/2000/svg">
  <path fill="#24A148" d="M36.9,-62.3C50.7,-56,66.8,-51.9,72.1,-41.9C77.3,-31.9,71.8,-16,68,-2.2C64.1,11.5,62.1,23.1,59.3,37.4C56.5,51.7,53,68.7,43,76.2C33,83.6,16.5,81.5,1.4,79.1C-13.7,76.6,-27.3,73.8,-41.3,68.6C-55.3,63.5,-69.6,56,-75.2,44.1C-80.7,32.3,-77.5,16.2,-76.2,0.7C-75,-14.7,-75.7,-29.4,-71.6,-43.7C-67.4,-57.9,-58.4,-71.7,-45.7,-78.7C-32.9,-85.7,-16.5,-85.8,-2.5,-81.6C11.6,-77.3,23.1,-68.7,36.9,-62.3Z" transform="translate(100 100)" />
</svg>
