<?xml version="1.0" standalone="no"?>
<svg viewBox="0 0 200 200" xmlns="http://www.w3.org/2000/svg">
  <path fill="#EED3D9" d="M32.4,-59.4C40.8,-51.4,45.4,-40.1,51.8,-29.7C58.2,-19.2,66.3,-9.6,69.4,1.7C72.4,13.1,70.2,26.2,65.2,39.1C60.2,51.9,52.4,64.6,41.1,69.7C29.7,74.9,14.9,72.6,3.1,67.2C-8.7,61.8,-17.3,53.4,-24.6,45.9C-31.9,38.4,-37.8,31.8,-47.1,24.3C-56.4,16.8,-69.1,8.4,-73.8,-2.7C-78.5,-13.8,-75.2,-27.7,-67.4,-37.7C-59.5,-47.7,-47.1,-54,-35.1,-59.9C-23.2,-65.9,-11.6,-71.6,0.2,-72C12,-72.4,24.1,-67.5,32.4,-59.4Z" transform="translate(100 100)" />
</svg>
