<?xml version="1.0" standalone="no"?>
<svg viewBox="0 0 200 200" xmlns="http://www.w3.org/2000/svg">
  <path fill="#F1C21B" d="M38.3,-69.3C48.8,-60.3,55.8,-48.3,61.3,-36.2C66.8,-24.2,70.8,-12.1,74.2,1.9C77.5,15.9,80.1,31.9,74.9,44.5C69.8,57.1,56.7,66.4,42.9,73.5C29.1,80.6,14.6,85.6,2.9,80.6C-8.8,75.6,-17.6,60.7,-29.5,52.5C-41.4,44.3,-56.3,42.7,-62,35C-67.8,27.4,-64.3,13.7,-63.8,0.3C-63.3,-13.1,-65.6,-26.2,-60.8,-35.4C-55.9,-44.5,-43.9,-49.8,-32.5,-58.3C-21.2,-66.8,-10.6,-78.5,1.7,-81.4C13.9,-84.3,27.9,-78.3,38.3,-69.3Z" transform="translate(100 100)" />
</svg>
